<svg width="26" height="32" viewBox="0 0 26 32" fill="none" xmlns="http://www.w3.org/2000/svg">
<path d="M18.6888 0.33493C17.2261 0.503837 15.1561 1.79399 14.1283 3.17399C13.5353 3.96462 13.1867 4.71931 12.8848 5.85493L12.7339 6.42274L12.7411 7.02649C12.7483 7.35712 12.7662 7.66618 12.7842 7.71649C12.8309 7.83509 12.9208 7.85306 13.5533 7.85665C14.078 7.86024 14.1103 7.85665 14.5595 7.72368C15.7598 7.37509 16.6403 6.8504 17.2656 6.10649C17.4166 5.92321 17.643 5.67884 17.7616 5.55665C18.1569 5.16852 18.6636 4.30602 18.9439 3.55852C19.2242 2.80743 19.35 2.11024 19.386 1.11837L19.4075 0.482274L19.3141 0.388837C19.2099 0.284618 19.1524 0.281024 18.6888 0.33493Z" fill="#636D5B"/>
<path d="M18.3544 7.76346C17.6428 7.7994 15.7273 8.33127 14.3509 8.87033C13.5172 9.19737 13.5172 9.19737 13.3519 9.22612C13.0644 9.27283 12.36 9.06799 11.1489 8.57924C10.5056 8.32409 9.84439 8.13002 8.86689 7.90721C8.4572 7.81737 7.77799 7.80659 7.4833 7.88924C7.36471 7.92159 6.99096 7.99705 6.65314 8.05455C5.92721 8.18393 5.51752 8.30971 4.97127 8.57924C3.32174 9.38424 2.1969 10.5414 1.30565 12.3527C0.910341 13.1505 0.619248 13.9303 0.403623 14.7605C0.08378 15.9931 0.0765925 18.3578 0.389248 19.7917C0.425186 19.9678 0.457529 20.1763 0.457529 20.2589C0.457529 20.4314 0.489873 20.5608 0.791748 21.7503C1.07206 22.85 1.04331 22.7602 1.57878 24.1042C2.32987 25.991 2.56706 26.4078 4.10159 28.5246C4.73049 29.3906 5.05033 29.786 5.51393 30.2567C5.99908 30.7527 6.3908 31.0402 6.94424 31.3133C7.56955 31.6188 7.84267 31.6871 8.41767 31.6835C9.15439 31.6835 9.74736 31.5325 10.8758 31.0581C11.5874 30.7599 11.6341 30.7455 12.9278 30.4796C13.3159 30.3969 13.6753 30.4041 14.2216 30.4939C14.4084 30.5227 14.6888 30.5658 14.8397 30.5874C15.1452 30.6305 15.4542 30.7311 16.252 31.051C17.2152 31.4391 17.8944 31.6116 18.6059 31.6547C19.6409 31.7194 20.64 31.2594 21.7073 30.2352C22.7962 29.1822 23.8133 27.7411 24.8411 25.7969C25.1178 25.2722 25.5598 24.1977 25.6353 23.8742C25.6676 23.7449 25.7215 23.5831 25.7611 23.5185C25.797 23.4538 25.8294 23.3639 25.8294 23.3244C25.8294 23.195 25.567 22.9902 25.1034 22.7566C24.2301 22.3074 23.3712 21.5383 22.7926 20.6722C22.3794 20.0505 21.9625 19.1197 21.8583 18.5699C21.6822 17.6642 21.6319 16.6724 21.7325 15.9824C21.7577 15.8027 21.8475 15.4253 21.9337 15.1378C22.3039 13.8908 22.5591 13.3913 23.1376 12.7731C23.3137 12.5899 23.4575 12.421 23.4575 12.4066C23.4575 12.3455 24.338 11.6088 24.5536 11.4902C24.6722 11.4219 24.8231 11.3177 24.8878 11.253C25.0855 11.0589 25.0567 10.9835 24.5608 10.4013C23.8959 9.62143 23.0586 8.98174 22.0739 8.50377C21.4594 8.20549 21.0353 8.05815 20.4423 7.93596C19.835 7.80659 18.9294 7.73112 18.3544 7.76346Z" fill="#636D5B"/>
</svg>
