<svg width="747" height="607" viewBox="0 0 747 607" fill="none" xmlns="http://www.w3.org/2000/svg">
<g filter="url(#filter0_f_114_2)">
<path d="M298.548 180.712C327.516 207.003 333.128 188.771 381.401 181.76C385.857 181.113 389.789 184.634 389.789 189.136C389.789 191.031 390.505 192.845 391.719 194.3C397.068 200.708 406.354 213.714 412.143 228.464C420.355 249.383 420.811 236.65 433.129 236.65C445.447 236.65 455.483 228.464 515.702 207.544C575.921 186.624 533.951 213.001 515.702 313.507C497.454 414.014 482.399 326.241 472.363 326.241H412.143C370.172 326.241 412.143 340.339 412.143 352.618C412.143 364.897 389.789 384.908 356.03 400.37C322.271 415.833 325.464 400.37 290.336 393.094C255.209 385.817 278.931 389.001 278.931 370.81C278.931 352.618 269.351 334.427 249.734 326.241C230.117 318.055 220.08 313.507 207.763 299.409C195.445 285.311 201.832 253.476 200.464 228.464C199.095 203.451 214.606 189.353 249.734 155.699C284.862 122.045 267.982 152.97 298.548 180.712Z" fill="#ECF9E8"/>
</g>
<defs>
<filter id="filter0_f_114_2" x="0" y="-59" width="747" height="666" filterUnits="userSpaceOnUse" color-interpolation-filters="sRGB">
<feFlood flood-opacity="0" result="BackgroundImageFix"/>
<feBlend mode="normal" in="SourceGraphic" in2="BackgroundImageFix" result="shape"/>
<feGaussianBlur stdDeviation="100" result="effect1_foregroundBlur_114_2"/>
</filter>
</defs>
</svg>
