<svg width="647" height="502" viewBox="0 0 647 502" fill="none" xmlns="http://www.w3.org/2000/svg">
<g filter="url(#filter0_f_114_3)">
<path d="M270.148 228.366C290.763 247.141 294.761 234.128 329.1 229.118C332.284 228.653 335.095 231.169 335.095 234.388C335.095 235.738 335.604 237.032 336.467 238.07C340.275 242.647 346.886 251.938 351.007 262.474C356.852 277.417 357.177 268.321 365.945 268.321C374.713 268.321 381.857 262.474 424.722 247.531C467.587 232.588 437.711 251.429 424.722 323.22C411.732 395.01 401.016 332.315 393.872 332.315H351.007C321.131 332.315 351.007 342.385 351.007 351.156C351.007 359.927 335.095 374.22 311.065 385.265C287.034 396.309 289.307 385.265 264.303 380.067C239.298 374.87 256.184 377.143 256.184 364.15C256.184 351.156 249.365 338.162 235.401 332.315C221.438 326.468 214.294 323.22 205.526 313.149C196.758 303.079 201.304 280.34 200.33 262.474C199.356 244.608 210.397 234.538 235.401 210.499C260.406 186.461 248.391 208.55 270.148 228.366Z" fill="#E5E1D6"/>
</g>
<defs>
<filter id="filter0_f_114_3" x="0" y="0" width="647" height="590" filterUnits="userSpaceOnUse" color-interpolation-filters="sRGB">
<feFlood flood-opacity="0" result="BackgroundImageFix"/>
<feBlend mode="normal" in="SourceGraphic" in2="BackgroundImageFix" result="shape"/>
<feGaussianBlur stdDeviation="100" result="effect1_foregroundBlur_114_3"/>
</filter>
</defs>
</svg>
