<svg width="84" height="28" viewBox="0 0 84 28" fill="none" xmlns="http://www.w3.org/2000/svg">
<path d="M9.56137 0.291126C7.12669 0.573315 4.92169 1.66269 3.13012 3.47394C1.56169 5.06207 0.564186 6.97175 0.150748 9.17675C-0.0198765 10.0824 -0.000189029 11.9199 0.190123 12.8124C0.498561 14.2693 1.01044 15.5358 1.752 16.658C3.50419 19.3224 6.08981 20.9827 9.28575 21.488C10.1454 21.6258 12.0289 21.593 12.9411 21.4289C16.5439 20.7596 19.2083 18.5283 20.3042 15.2471C20.6848 14.0921 20.7701 13.5014 20.7636 11.8674C20.7636 11.0339 20.7308 10.2661 20.6914 10.1611L20.6323 9.96425H15.7433H10.8607V11.408V12.8518L14.3323 12.8714L17.7973 12.8846L17.7514 13.2586C17.6923 13.7508 17.4429 14.6039 17.2198 15.0896C16.2223 17.2683 13.7745 18.6596 10.9198 18.6596C7.97325 18.6596 5.45981 17.1699 4.07512 14.5908C3.14325 12.8452 2.95294 10.4958 3.58294 8.47457C4.4295 5.78394 6.72637 3.75613 9.47606 3.2705C10.2898 3.13269 11.6286 3.13925 12.3701 3.29675C13.5645 3.54613 14.772 4.1105 15.6251 4.82582C15.8745 5.03581 16.0976 5.19988 16.1239 5.19988C16.2092 5.18675 18.1123 3.19175 18.1123 3.11956C18.1123 3.04082 17.2854 2.35831 16.767 2.0105C14.7326 0.652065 12.0289 0.00237656 9.56137 0.291126Z" fill="#636D5B"/>
<path d="M67.0161 11.0597L67.0357 21.1857L68.532 21.1988L70.0217 21.2119V11.0794V0.940346H68.5123H67.0029L67.0161 11.0597Z" fill="#636D5B"/>
<path d="M28.12 7.87126C27.431 7.95657 26.8797 8.06157 26.4531 8.20595C23.5131 9.18376 21.6756 11.8678 21.8069 14.985C21.9578 18.5222 24.5435 21.2456 28.0347 21.5409C30.9353 21.7837 33.4619 20.4581 34.7678 18.0038C35.936 15.8053 35.8047 12.885 34.4463 10.8441C34.0263 10.2272 33.206 9.40032 32.6416 9.03938C31.3094 8.18626 29.485 7.71376 28.12 7.87126ZM29.8263 10.7259C30.7253 11.0016 31.6507 11.7891 32.0772 12.6356C32.7203 13.9022 32.7072 15.5756 32.0575 16.8159C30.581 19.6247 26.5975 19.5328 25.2194 16.6584C24.6485 15.4575 24.6681 13.9219 25.2588 12.7209C26.1119 11.0016 28.0216 10.1681 29.8263 10.7259Z" fill="#636D5B"/>
<path d="M42.82 7.90381C39.8143 8.21881 37.3665 10.5747 36.8809 13.6263C36.7694 14.3219 36.8284 15.7197 37.0056 16.376C37.5044 18.2791 38.6003 19.7491 40.2081 20.6679C41.1268 21.1929 41.9537 21.4422 43.0759 21.5407C45.7009 21.7704 48.0765 20.6547 49.4809 18.5351C50.5243 16.9666 50.859 14.696 50.3275 12.7535C50.1503 12.0972 49.6384 11.0472 49.2643 10.5485C48.1618 9.09818 46.3834 8.11381 44.4737 7.90381C43.7715 7.82506 43.5812 7.82506 42.82 7.90381ZM44.7559 10.6929C45.7337 10.9685 46.6459 11.7429 47.1053 12.6879C48.0568 14.6304 47.5318 17.006 45.9043 18.1741C44.0275 19.5063 41.409 18.8763 40.3393 16.8354C39.729 15.6804 39.6634 14.1972 40.1556 12.9569C40.8775 11.1522 42.8725 10.1744 44.7559 10.6929Z" fill="#636D5B"/>
<path d="M57.7299 7.90362C57.0277 7.97581 56.5093 8.12675 55.7874 8.46144C53.4709 9.54425 51.9746 11.8214 51.8631 14.4596C51.7778 16.4611 52.4603 18.2396 53.8384 19.6111C55.2887 21.0549 57.1984 21.7636 59.0556 21.5471C60.1449 21.4224 60.9324 21.068 61.7265 20.3461L62.1465 19.9589V20.7136C62.1465 22.0524 61.9693 22.8464 61.523 23.5486C60.2368 25.5633 57.0671 25.583 55.5643 23.588C55.4003 23.3649 55.2099 23.0696 55.1509 22.9252C55.0853 22.7808 55.0065 22.6627 54.9803 22.6627C54.9474 22.6627 54.3503 22.9055 53.6481 23.1943L52.3684 23.7324L52.6375 24.2311C53.5496 25.9243 55.0787 27.1449 56.8637 27.5911C57.6249 27.7814 59.3443 27.8011 60.0859 27.6305C63.0652 26.948 64.7058 24.8414 64.9618 21.383C65.0077 20.8383 65.034 17.9771 65.034 14.3743V8.29081H63.5902H62.1465V8.84862V9.40644L61.674 9.01269C60.624 8.12675 59.2327 7.73956 57.7299 7.90362ZM59.5543 10.6664C60.0531 10.7911 60.7224 11.198 61.1752 11.6442C61.9955 12.4646 62.3893 13.6196 62.3302 15.0108C62.2777 16.1658 61.9496 16.9796 61.2409 17.7474C60.2893 18.7777 58.8521 19.1452 57.5331 18.6989C55.9515 18.1674 54.9803 16.8155 54.8818 15.0174C54.7243 12.1561 57.0212 10.0233 59.5543 10.6664Z" fill="#636D5B"/>
<path d="M76.8602 7.90999C74.9374 8.17905 73.1064 9.50467 72.2074 11.2765C71.3805 12.8909 71.1902 15.0237 71.7021 16.8087C72.4699 19.4731 74.6683 21.2647 77.5099 21.5534C79.4392 21.7437 81.2308 21.1662 82.727 19.8603C83.0683 19.5584 83.8033 18.7381 83.8558 18.6003C83.8689 18.5609 81.992 17.2812 81.5983 17.0647C81.5589 17.0384 81.3817 17.1959 81.2111 17.419C80.4564 18.3837 79.4261 18.8628 78.1267 18.8628C76.9914 18.8628 76.1908 18.5347 75.5149 17.8062C75.1736 17.4387 74.7667 16.8415 74.8192 16.7956C74.8324 16.789 75.2458 16.6119 75.7314 16.415C77.1949 15.8112 83.9674 13.0025 83.9805 12.9894C84.0264 12.95 83.2586 11.2831 83.0092 10.85C82.6024 10.1675 81.5655 9.12405 80.8502 8.69092C79.6952 7.98874 78.258 7.70655 76.8602 7.90999ZM78.783 10.6006C79.1177 10.6859 79.5049 10.8828 79.8199 11.1256C80.0758 11.329 80.4958 11.8869 80.4367 11.9394C80.4171 11.959 79.3605 12.4119 78.0808 12.9434C76.8077 13.4815 75.4427 14.0525 75.0555 14.2165C74.2417 14.5578 74.2417 14.5578 74.3139 13.9147C74.4321 12.7728 75.1014 11.7162 76.1317 11.0469C76.9455 10.5219 77.8577 10.3644 78.783 10.6006Z" fill="#636D5B"/>
</svg>
