<svg width="120" height="60" viewBox="0 0 120 60" fill="none" xmlns="http://www.w3.org/2000/svg">
<path d="M4.26566 20.175C4.24691 20.2406 3.29066 24.5156 2.15628 29.6719C1.01253 34.8281 0.0656564 39.1219 0.0375314 39.2062C-0.00934362 39.3656 0.168781 39.375 2.84066 39.375H5.69066L6.08441 37.8469C6.29066 37.0125 6.88129 34.6781 7.37816 32.6719L8.29691 29.0156L8.36254 32.3906C8.40941 34.2469 8.46566 36.5812 8.49379 37.5656L8.55004 39.375H10.5563H12.5719L15.1125 34.2188C16.5094 31.3875 17.6719 29.0812 17.6907 29.1C17.7188 29.1187 17.6907 29.2969 17.6344 29.5031C17.5313 29.8406 15.4688 39.2344 15.4688 39.3281C15.4688 39.3562 16.6875 39.375 18.1782 39.375C20.6813 39.375 20.8969 39.3656 20.9438 39.2062C20.9719 39.1219 21.9282 34.8469 23.0625 29.7188C24.1969 24.5906 25.1532 20.3156 25.1813 20.2219C25.2282 20.0719 25.0219 20.0625 21.375 20.0812L17.5219 20.1094L15.0375 25.3125C13.6688 28.1719 12.5157 30.5531 12.4782 30.5906C12.4407 30.6281 12.375 29.8125 12.3469 28.7625C12.2063 24.3375 12.0844 21.1969 12.0375 20.6437L11.9813 20.0625H8.14691C5.15628 20.0625 4.29378 20.0906 4.26566 20.175Z" fill="#636D5B"/>
<path d="M25.9596 21.5156L25.6221 22.9688H28.1908C29.5971 22.9688 30.7502 22.95 30.7502 22.9406C30.7502 22.9219 30.8814 22.275 31.0314 21.5156C31.1908 20.7562 31.3127 20.1094 31.3127 20.0906C31.3127 20.0812 30.1783 20.0625 28.8002 20.0625H26.2877L25.9596 21.5156Z" fill="#636D5B"/>
<path d="M104.962 20.4375C103.462 20.6156 102.722 20.9719 102.056 21.8438C101.606 22.4344 101.109 23.5688 100.912 24.4406L100.762 25.125H99.7406H98.7281L98.5875 25.6125C98.5031 25.8844 98.3531 26.4844 98.2406 26.9531C98.1281 27.4125 98.0062 27.8344 97.9687 27.8719C97.9312 27.9188 97.7625 27.7031 97.5937 27.4031C96.0187 24.6188 91.4437 23.6344 87.8718 25.3125C86.8031 25.8094 86.0531 26.3625 85.1624 27.3094C82.2468 30.4031 81.7499 35.1281 84.0656 37.6875C85.2562 39 86.9812 39.6562 89.2312 39.6562C91.8562 39.6562 94.0218 38.8125 95.7937 37.0875C98.0812 34.8844 99.1125 31.2563 98.1937 28.6688L98.0718 28.3125H99.0937C99.6656 28.3125 100.125 28.3406 100.125 28.3781C100.125 28.4063 99.9093 29.325 99.6468 30.4125C99.3843 31.5 98.8218 33.8906 98.3812 35.7188C97.95 37.5469 97.5656 39.1219 97.5375 39.2063C97.4906 39.3656 97.6593 39.375 100.106 39.375H102.731L102.797 39.0188C102.872 38.5875 105.084 28.7063 105.15 28.4719C105.197 28.3313 105.328 28.3125 106.134 28.3125C106.641 28.3125 107.062 28.35 107.062 28.3969C107.062 28.4438 106.687 30.2156 106.219 32.3344C105.656 34.9031 105.375 36.3938 105.375 36.7781C105.375 37.7906 105.966 38.7563 106.828 39.15C107.278 39.3656 107.381 39.375 109.566 39.375C111.647 39.375 111.834 39.3656 111.881 39.2063C111.937 39.0094 112.687 35.8125 112.687 35.7563C112.687 35.7375 112.378 35.7469 112.003 35.775C111.169 35.85 110.653 35.7094 110.569 35.4C110.541 35.2875 110.859 33.7125 111.272 31.9031C111.694 30.0938 112.031 28.5844 112.031 28.5563C112.031 28.5281 112.444 28.5 112.95 28.5H113.869L114.225 27.0188C114.412 26.2125 114.6 25.4719 114.619 25.3781C114.666 25.2375 114.581 25.2188 113.775 25.2188H112.884L112.941 24.9094C112.969 24.75 113.137 23.9813 113.297 23.2219C113.503 22.2563 113.569 21.8156 113.494 21.7875C113.437 21.7688 112.312 21.7594 111 21.7688L108.609 21.7969L108.45 22.4063C108.366 22.7438 108.187 23.5125 108.047 24.1125L107.794 25.2188H106.819C105.703 25.2188 105.731 25.2469 105.975 24.3281C106.209 23.4281 106.387 23.2688 107.194 23.1656L107.662 23.1094L107.934 21.8156C108.075 21.0938 108.178 20.4938 108.15 20.4656C108.066 20.3719 105.712 20.3531 104.962 20.4375ZM92.1468 28.0313C92.8218 28.4156 93.0937 29.1094 93.0937 30.4313C93.0937 32.4281 92.0343 34.9406 90.8437 35.7656C89.9156 36.4031 88.8843 36.1875 88.4062 35.2406C87.6187 33.7031 88.4531 30.1688 89.9624 28.6219C90.7312 27.8344 91.4437 27.6469 92.1468 28.0313Z" fill="#636D5B"/>
<path d="M60.7032 24.5996C58.3032 24.9934 56.1282 26.3246 54.7594 28.2371C54.5813 28.4902 54.4313 28.6777 54.4126 28.659C54.4032 28.6496 54.5813 27.834 54.8063 26.859C55.0313 25.8746 55.2094 25.0121 55.2188 24.9371C55.2188 24.8059 55.1157 24.7965 54.4219 24.8621C53.1094 24.9934 51.9469 25.4902 51.1032 26.2871C50.8126 26.559 50.7094 26.6152 50.7469 26.484C50.9532 25.7527 51.0938 25.0965 51.0657 25.059C50.9907 24.9934 46.1813 25.2184 46.1157 25.2934C46.0688 25.359 42.8344 39.159 42.8438 39.2996C42.8438 39.3465 44.0438 39.3746 45.5063 39.3746H48.1594L48.7407 36.4402C49.5563 32.3434 49.7626 31.6965 50.5782 30.8902C51.2438 30.2152 52.6501 29.634 53.5969 29.6246H53.8969L53.6719 30.1121C52.9688 31.659 52.7063 33.6559 53.0063 35.1559C53.4469 37.3684 54.9563 38.9902 57.1407 39.5902C57.9938 39.8246 60.0563 39.909 60.9751 39.759C63.4688 39.3371 65.5032 37.9496 66.7594 35.8215L67.0969 35.2496L67.1438 35.9059C67.3032 38.109 69.3001 39.5152 72.7407 39.8527C77.6438 40.3402 81.1876 38.484 81.9001 35.0715C82.1719 33.7402 81.7688 32.3621 80.8501 31.4996C80.0438 30.7309 79.1063 30.384 76.5938 29.8965C75.2251 29.634 74.5969 29.409 74.2969 29.0527C73.9782 28.6684 73.9969 28.3027 74.3532 27.8996C74.6907 27.5152 75.0938 27.3746 75.8907 27.3746C76.9313 27.3746 77.4657 27.834 77.4563 28.7246V29.2496H79.9219H82.3876L82.4532 28.7059C82.6688 26.8121 81.5813 25.4433 79.3876 24.8434C78.3376 24.5621 76.6313 24.4496 75.2157 24.5715C71.5594 24.8808 69.4219 26.3059 69.0844 28.6402C68.7469 31.0684 70.4532 32.7652 74.0626 33.5621C76.1157 34.0121 76.9126 34.7996 76.3126 35.784C75.7782 36.6652 73.7063 36.8246 72.8532 36.0465C72.5251 35.7371 72.5157 35.7184 72.5157 35.0246V34.3121L68.1563 34.3027L63.7969 34.2934L66.0188 33.5434L68.2407 32.8027L68.3532 32.4559C68.4094 32.2684 68.4844 31.5559 68.5032 30.8809C68.5594 29.4652 68.3813 28.5465 67.8563 27.4684C67.4626 26.6715 66.4501 25.6496 65.6251 25.2465C64.3501 24.609 62.2876 24.3371 60.7032 24.5996ZM62.3719 27.9746C63.1594 28.3027 63.5251 29.2309 63.4407 30.7027C63.3282 32.8402 62.2313 35.1371 60.9751 35.8684C60.2344 36.2996 59.3813 36.1684 58.8376 35.5309C57.7219 34.1902 58.4813 30.5152 60.2532 28.7059C61.0219 27.9371 61.7063 27.6934 62.3719 27.9746Z" fill="#636D5B"/>
<path d="M36.6845 24.7969C34.8283 25.1344 33.272 25.9688 31.9689 27.3376C28.8657 30.5813 28.5001 35.6532 31.1626 38.3063C32.3345 39.4688 33.497 39.8813 35.5783 39.8719C37.4533 39.8625 38.7658 39.5344 40.1251 38.7282C41.6158 37.8375 42.7595 36.3469 43.2564 34.6125L43.397 34.125H41.0345H38.672L38.447 34.5563C38.1283 35.1469 37.3314 35.85 36.8064 36C36.2814 36.1407 35.6814 36.075 35.3533 35.8313C35.222 35.7375 35.0064 35.4657 34.8751 35.2407C34.6689 34.875 34.6408 34.7157 34.6501 33.8907C34.6501 31.4907 36.122 28.7251 37.6501 28.2188C38.0814 28.0782 38.672 28.1532 38.9908 28.3876C39.3189 28.6313 39.5533 29.2688 39.5533 29.9251L39.5626 30.4688H41.9158H44.2783L44.222 29.7376C44.0251 27.2251 42.5064 25.3219 40.2751 24.7969C39.5626 24.6282 37.622 24.6282 36.6845 24.7969Z" fill="#636D5B"/>
<path d="M25.0781 25.2373C25.0406 25.4061 24.3188 28.6498 23.475 32.4373C22.6313 36.2248 21.9375 39.3561 21.9375 39.3936C21.9375 39.4404 23.1281 39.4592 24.5719 39.4498L27.2156 39.4217L27.5625 37.7811C29.2406 29.9717 30.2812 25.0686 30.2812 25.0029C30.2812 24.9654 29.1281 24.9373 27.7125 24.9373H25.1438L25.0781 25.2373Z" fill="#636D5B"/>
<path d="M117.562 25.0306C116.587 25.2181 116.034 25.9119 116.025 26.9525C116.025 27.9556 116.587 28.6588 117.544 28.865C118.753 29.1181 119.831 28.3869 119.963 27.215C120.131 25.7994 118.978 24.7494 117.562 25.0306ZM118.744 25.49C119.681 25.9119 119.963 27.065 119.344 27.9275C118.659 28.8931 116.934 28.6963 116.475 27.59C115.875 26.1744 117.319 24.8431 118.744 25.49Z" fill="#636D5B"/>
<path d="M117.525 25.9594C117.469 26.0344 117.188 27.6937 117.188 27.9094C117.188 27.975 117.262 28.0312 117.366 28.0312C117.544 28.0312 117.656 27.7969 117.656 27.3937C117.656 27.0187 117.984 27.1406 118.125 27.5625C118.219 27.8625 118.294 27.9375 118.472 27.9375C118.725 27.9375 118.734 27.9187 118.537 27.5531C118.397 27.2812 118.406 27.2625 118.678 27C119.025 26.6812 119.044 26.4094 118.734 26.1094C118.556 25.9219 118.416 25.875 118.041 25.875C117.787 25.875 117.553 25.9125 117.525 25.9594ZM118.416 26.25C118.809 26.4656 118.566 26.9062 118.05 26.9062C117.741 26.9062 117.741 26.8969 117.797 26.5969C117.834 26.4375 117.881 26.2687 117.909 26.2219C117.966 26.1281 118.2 26.1375 118.416 26.25Z" fill="#636D5B"/>
</svg>
