<svg width="131" height="12" viewBox="0 0 131 12" fill="none" xmlns="http://www.w3.org/2000/svg">
<g clip-path="url(#clip0_0_417)">
<path d="M2.8316 4.51667C3.85695 4.51667 4.93112 4.46862 5.95646 4.42056C6.3959 4.42056 6.7865 4.37251 7.22594 4.37251C9.08132 4.27639 10.9367 4.18028 12.7921 4.08417C15.0381 3.98806 17.2353 3.84389 19.4813 3.74778C22.6549 3.55556 25.8286 3.41139 29.0023 3.21917C29.7347 3.17111 30.4671 3.17111 31.1995 3.12306C33.0549 3.02694 34.9102 2.93083 36.7656 2.88278C38.621 2.78667 40.4764 2.69055 42.3318 2.6425C43.0642 2.59444 43.7966 2.54639 44.529 2.54639C47.4585 2.45028 50.4369 2.35416 53.3665 2.25805C55.173 2.21 56.9796 2.16194 58.835 2.06583C59.5673 2.06583 60.2509 2.01777 60.9833 2.01777C63.8152 1.96972 66.6959 1.92166 69.5278 1.87361C72.3597 1.82555 75.1428 1.77749 77.9747 1.72944C78.7071 1.72944 79.4395 1.72944 80.2207 1.72944C82.0761 1.72944 83.8827 1.72944 85.7381 1.72944C88.6188 1.72944 91.4507 1.72944 94.3314 1.68138C95.2591 1.68138 96.1868 1.68138 97.1145 1.68138C99.0675 1.68138 101.021 1.68138 102.974 1.68138C103.12 1.68138 103.315 1.68138 103.462 1.68138C99.0675 1.72944 94.6244 1.77749 90.23 1.87361C88.3747 1.92166 86.5681 1.92166 84.7127 1.96972C83.9315 1.96972 83.1015 1.96972 82.3202 2.01777C79.6348 2.06583 76.9982 2.16194 74.3128 2.21C71.2367 2.30611 68.1607 2.35416 65.0847 2.45028C64.5476 2.45028 64.0593 2.49833 63.5223 2.49833C61.8622 2.59444 60.2509 2.6425 58.5908 2.73861C55.2707 2.88278 51.9505 3.02694 48.6303 3.17111C48.1421 3.17111 47.6538 3.21917 47.1656 3.26722C45.5543 3.36333 43.8942 3.5075 42.283 3.60361C39.3534 3.79584 36.4727 3.98806 33.5431 4.18028C32.7619 4.22834 31.9319 4.32445 31.1507 4.37251C29.2953 4.51667 27.4399 4.66084 25.5845 4.85306C23.2408 5.04529 20.8484 5.23751 18.5047 5.42973C15.2334 5.71807 11.9132 6.0064 8.64189 6.29474C7.86067 6.34279 7.07946 6.4389 6.24942 6.48696C4.83347 6.63113 3.41751 6.77529 2.00156 6.91946C1.85508 6.91946 1.70861 7.01557 1.70861 7.2078C1.70861 7.35196 1.85508 7.49613 2.00156 7.49613C2.53865 7.49613 3.02691 7.54419 3.56399 7.54419C3.46634 7.78446 3.41751 7.92863 3.41751 8.0728C3.41751 8.60141 3.85695 9.08197 4.44286 9.08197C8.49541 8.84169 12.4991 8.55336 16.5517 8.36113C20.0672 8.21697 23.5826 8.02474 27.0981 7.88058C30.9553 7.68835 34.8614 7.49613 38.7187 7.35196C39.9393 7.30391 41.16 7.25585 42.3806 7.15974C42.7224 7.15974 43.0642 7.11168 43.4548 7.11168C49.7045 6.96752 55.9542 6.77529 62.2039 6.63113C65.5241 6.53502 68.8931 6.4389 72.2133 6.39085C73.4339 6.34279 74.6057 6.34279 75.8264 6.29474C82.2226 6.19862 88.6188 6.10251 95.015 6.0064C97.7492 5.95835 100.483 5.91029 103.218 5.86223C105.561 5.81418 107.905 5.81418 110.249 5.71807C112.202 5.67001 114.106 5.5739 116.059 5.52584C117.035 5.47779 118.012 5.47779 118.94 5.42973C121.137 5.28557 123.334 5.1414 125.531 4.99723C125.385 5.18945 125.385 5.47779 125.434 5.67001C125.482 5.91029 125.629 6.10251 125.873 6.19862C126.068 6.29474 126.361 6.39085 126.557 6.29474C127.045 6.10251 127.533 5.91029 127.972 5.71807C127.972 5.71807 127.972 5.71807 127.924 5.71807C127.972 5.71807 127.973 5.67001 128.021 5.67001C128.07 5.67001 128.119 5.62196 128.119 5.62196H128.07C128.314 5.52584 128.558 5.42973 128.851 5.28557C129.095 5.18945 129.388 5.04529 129.633 4.94917C129.926 4.80501 130.17 4.66084 130.463 4.51667C130.756 4.37251 130.951 3.98806 130.951 3.65167C130.951 3.45945 130.902 3.31528 130.804 3.12306C130.658 2.93083 130.463 2.69055 130.218 2.6425C129.974 2.59444 129.73 2.54639 129.486 2.54639C129.437 2.54639 129.388 2.54639 129.34 2.54639C129.193 2.54639 128.998 2.54639 128.851 2.59444C128.461 2.6425 128.119 2.69055 127.728 2.69055C127.435 2.69055 127.142 2.73861 126.801 2.73861C125.971 2.78667 125.189 2.83472 124.359 2.93083C124.164 2.93083 123.92 2.97889 123.725 2.97889C123.822 2.88278 123.871 2.78667 123.871 2.69055C123.92 2.59444 123.92 2.49833 123.92 2.40222C123.92 2.35416 123.92 2.25805 123.969 2.21C123.969 2.11389 123.969 2.01777 123.92 1.96972C123.92 1.96972 123.969 1.96972 123.969 1.92166C124.115 1.82555 124.262 1.72944 124.359 1.53722C124.457 1.39305 124.506 1.20083 124.506 1.0086C124.506 0.81638 124.457 0.672212 124.359 0.479989C124.311 0.431934 124.262 0.335822 124.213 0.287766C124.066 0.143599 123.92 0.0955434 123.773 0.0474876C123.481 -0.0486239 123.139 -0.0966797 122.797 -0.0966797C122.504 -0.0966797 122.26 -0.0966797 121.967 -0.0966797C121.576 -0.0966797 121.186 -0.0966797 120.795 -0.0966797C120.258 -0.0966797 119.672 -0.0966797 119.135 -0.0966797C117.67 -0.0966797 116.205 -0.0966797 114.741 -0.0966797C113.374 -0.0966797 111.958 -0.0966797 110.59 -0.0966797C109.321 -0.0966797 108.1 -0.0966797 106.831 -0.0966797C101.802 -0.0966797 96.8215 -0.0486239 91.7925 -0.000568166C88.0329 0.0474876 84.2733 0.0955434 80.5137 0.0955434C78.8536 0.0955434 77.1447 0.143599 75.4846 0.191655C71.725 0.287766 67.9654 0.335822 64.2058 0.431934C63.1316 0.431934 62.0575 0.479989 60.9833 0.479989C60.3486 0.479989 59.7626 0.528045 59.1279 0.528045C55.4171 0.672212 51.7064 0.81638 47.9956 0.960547C46.8726 1.0086 45.7496 1.05666 44.5778 1.10471C43.943 1.10471 43.3083 1.15277 42.6736 1.20083C38.9628 1.39305 35.3008 1.58527 31.5901 1.77749C29.6859 1.87361 27.7817 1.96972 25.8774 2.11389C22.6061 2.30611 19.3348 2.49833 16.1123 2.73861C13.2804 2.93083 10.4485 3.075 7.61654 3.21917C7.17711 3.26722 6.73768 3.26722 6.24942 3.31528C5.51703 3.36333 4.78464 3.36333 4.05225 3.41139C3.41751 3.60361 2.73395 3.60361 2.09921 3.60361C2.05039 3.41139 1.85508 3.26722 1.70861 3.31528C1.26917 3.31528 0.878565 3.36333 0.439131 3.41139C0.243827 3.45945 0.0485235 3.55556 -0.000302435 3.74778C-0.0491284 3.98806 0.0973494 4.22834 0.292653 4.27639C0.487957 4.32445 0.683261 4.37251 0.878565 4.42056C1.07387 4.46862 1.22035 4.46862 1.41565 4.46862C1.90391 4.51667 2.34334 4.51667 2.8316 4.51667ZM117.084 2.97889C117.67 2.97889 118.305 2.97889 118.891 2.97889C118.94 3.12306 119.037 3.21917 119.135 3.31528C118.891 3.31528 118.647 3.36333 118.451 3.36333C118.012 3.36333 117.573 3.41139 117.133 3.41139C115.18 3.45945 113.276 3.55556 111.323 3.60361C110.444 3.65167 109.565 3.69973 108.686 3.69973C107.319 3.69973 105.903 3.74778 104.536 3.74778C101.362 3.79584 98.2375 3.84389 95.0638 3.89195C88.9117 3.98806 82.8085 4.08417 76.6564 4.18028C72.2621 4.22834 67.8678 4.37251 63.4734 4.51667C56.8819 4.7089 50.2416 4.85306 43.6501 5.04529C42.3318 5.09334 41.0135 5.1414 39.6952 5.23751C35.9356 5.42973 32.176 5.5739 28.4164 5.76612C24.7545 5.95835 21.0437 6.10251 17.3817 6.29474C17.04 6.29474 16.6982 6.34279 16.3564 6.34279C17.3329 6.24668 18.3583 6.19862 19.3348 6.10251C22.8014 5.86223 26.2681 5.5739 29.7347 5.33362C30.9553 5.23751 32.176 5.1414 33.3478 5.04529C33.9826 4.99723 34.6173 4.94917 35.2032 4.94917C38.8651 4.75695 42.4783 4.51667 46.0914 4.32445C46.775 4.27639 47.5073 4.22834 48.1909 4.18028C49.2162 4.13223 50.2416 4.08417 51.2181 4.08417C54.9289 3.94 58.6397 3.79584 62.3504 3.65167C63.1805 3.60361 64.0105 3.60361 64.7917 3.55556C64.987 3.55556 65.2312 3.55556 65.4265 3.55556C66.0124 3.55556 66.5983 3.55556 67.1354 3.5075C70.8461 3.41139 74.6057 3.36333 78.3165 3.26722C80.0254 3.21917 81.7343 3.17111 83.4432 3.17111C88.9606 3.12306 94.5267 3.075 100.044 3.02694C105.806 3.02694 111.469 2.97889 117.084 2.97889Z" fill="#C8F4A6"/>
<path d="M10.2041 11.148C10.3659 11.148 10.497 11.0189 10.497 10.8596C10.497 10.7004 10.3659 10.5713 10.2041 10.5713C10.0423 10.5713 9.91113 10.7004 9.91113 10.8596C9.91113 11.0189 10.0423 11.148 10.2041 11.148Z" fill="#ECF9E8"/>
</g>
<defs>
<clipPath id="clip0_0_417">
<rect width="131" height="11.1489" fill="white"/>
</clipPath>
</defs>
</svg>
