<svg width="235" height="17" viewBox="0 0 235 17" fill="none" xmlns="http://www.w3.org/2000/svg">
<path d="M5.08002 8.10301C6.91938 8.10301 8.84633 8.0168 10.6857 7.9306C11.474 7.9306 12.1747 7.84439 12.963 7.84439C16.2914 7.67198 19.6197 7.49956 22.9481 7.32715C26.9772 7.15473 30.9186 6.89611 34.9477 6.7237C40.641 6.37887 46.3342 6.12025 52.0275 5.77542C53.3413 5.68922 54.6551 5.68922 55.969 5.60301C59.2973 5.4306 62.6257 5.25818 65.954 5.17198C69.2824 4.99956 72.6108 4.82715 75.9391 4.74094C77.253 4.65473 78.5668 4.56853 79.8806 4.56853C85.1359 4.39611 90.4788 4.2237 95.7341 4.05129C98.9749 3.96508 102.216 3.87887 105.544 3.70646C106.858 3.70646 108.084 3.62025 109.398 3.62025C114.478 3.53404 119.646 3.44784 124.726 3.36163C129.806 3.27542 134.799 3.18922 139.879 3.10301C141.193 3.10301 142.506 3.10301 143.908 3.10301C147.236 3.10301 150.477 3.10301 153.805 3.10301C158.973 3.10301 164.053 3.10301 169.221 3.0168C170.885 3.0168 172.549 3.0168 174.213 3.0168C177.717 3.0168 181.221 3.0168 184.724 3.0168C184.987 3.0168 185.337 3.0168 185.6 3.0168C177.717 3.10301 169.746 3.18922 161.863 3.36163C158.535 3.44784 155.294 3.44784 151.966 3.53404C150.565 3.53404 149.076 3.53404 147.674 3.62025C142.857 3.70646 138.127 3.87887 133.31 3.96508C127.792 4.13749 122.273 4.2237 116.755 4.39611C115.792 4.39611 114.916 4.48232 113.953 4.48232C110.975 4.65473 108.084 4.74094 105.106 4.91335C99.1501 5.17198 93.1941 5.4306 87.2381 5.68922C86.3622 5.68922 85.4863 5.77542 84.6104 5.86163C81.72 6.03404 78.742 6.29267 75.8515 6.46508C70.5962 6.80991 65.4285 7.15473 60.1732 7.49956C58.7718 7.58577 57.2828 7.75818 55.8814 7.84439C52.553 8.10301 49.2246 8.36163 45.8963 8.70646C41.692 9.05129 37.4002 9.39611 33.1959 9.74094C27.3275 10.2582 21.3715 10.7754 15.5031 11.2927C14.1016 11.3789 12.7002 11.5513 11.2112 11.6375C8.67115 11.8961 6.13108 12.1547 3.59102 12.4134C3.32825 12.4134 3.06548 12.5858 3.06548 12.9306C3.06548 13.1892 3.32825 13.4478 3.59102 13.4478C4.55449 13.4478 5.43037 13.534 6.39385 13.534C6.21867 13.9651 6.13108 14.2237 6.13108 14.4823C6.13108 15.4306 6.91938 16.2927 7.97044 16.2927C15.2403 15.8616 22.4226 15.3444 29.6924 14.9996C35.9988 14.7409 42.3051 14.3961 48.6115 14.1375C55.531 13.7927 62.5381 13.4478 69.4576 13.1892C71.6473 13.103 73.837 13.0168 76.0267 12.8444C76.6398 12.8444 77.253 12.7582 77.9537 12.7582C89.165 12.4996 100.376 12.1547 111.588 11.8961C117.544 11.7237 123.587 11.5513 129.543 11.4651C131.733 11.3789 133.835 11.3789 136.025 11.2927C147.499 11.1203 158.973 10.9478 170.447 10.7754C175.352 10.6892 180.257 10.603 185.162 10.5168C189.366 10.4306 193.571 10.4306 197.775 10.2582C201.278 10.172 204.694 9.99956 208.198 9.91335C209.95 9.82715 211.701 9.82715 213.366 9.74094C217.307 9.48232 221.249 9.2237 225.19 8.96508C224.927 9.30991 224.927 9.82715 225.015 10.172C225.102 10.603 225.365 10.9478 225.803 11.1203C226.153 11.2927 226.679 11.4651 227.029 11.2927C227.905 10.9478 228.781 10.603 229.569 10.2582C229.569 10.2582 229.569 10.2582 229.482 10.2582C229.569 10.2582 229.569 10.172 229.657 10.172C229.745 10.172 229.832 10.0858 229.832 10.0858H229.745C230.183 9.91335 230.62 9.74094 231.146 9.48232C231.584 9.30991 232.109 9.05129 232.547 8.87887C233.073 8.62025 233.511 8.36163 234.036 8.10301C234.562 7.84439 234.912 7.15473 234.912 6.55129C234.912 6.20646 234.825 5.94784 234.65 5.60301C234.387 5.25818 234.036 4.82715 233.598 4.74094C233.161 4.65473 232.723 4.56853 232.285 4.56853C232.197 4.56853 232.109 4.56853 232.022 4.56853C231.759 4.56853 231.409 4.56853 231.146 4.65473C230.445 4.74094 229.832 4.82715 229.131 4.82715C228.606 4.82715 228.08 4.91335 227.467 4.91335C225.978 4.99956 224.577 5.08577 223.088 5.25818C222.738 5.25818 222.3 5.34439 221.949 5.34439C222.124 5.17198 222.212 4.99956 222.212 4.82715C222.3 4.65473 222.3 4.48232 222.3 4.30991C222.3 4.2237 222.3 4.05129 222.387 3.96508C222.387 3.79267 222.387 3.62025 222.3 3.53404C222.3 3.53404 222.387 3.53404 222.387 3.44784C222.65 3.27542 222.913 3.10301 223.088 2.75818C223.263 2.49956 223.351 2.15473 223.351 1.80991C223.351 1.46508 223.263 1.20646 223.088 0.861631C223 0.775424 222.913 0.60301 222.825 0.516804C222.562 0.258183 222.3 0.171976 222.037 0.0857691C221.511 -0.0866447 220.898 -0.172852 220.285 -0.172852C219.759 -0.172852 219.322 -0.172852 218.796 -0.172852C218.095 -0.172852 217.395 -0.172852 216.694 -0.172852C215.73 -0.172852 214.679 -0.172852 213.716 -0.172852C211.088 -0.172852 208.461 -0.172852 205.833 -0.172852C203.38 -0.172852 200.84 -0.172852 198.388 -0.172852C196.111 -0.172852 193.921 -0.172852 191.644 -0.172852C182.622 -0.172852 173.688 -0.0866447 164.666 -0.000437766C157.922 0.0857691 151.178 0.171976 144.433 0.171976C141.455 0.171976 138.39 0.258183 135.412 0.34439C128.667 0.516804 121.923 0.603011 115.179 0.775424C113.252 0.775424 111.325 0.861631 109.398 0.861631C108.259 0.861631 107.208 0.947838 106.07 0.947838C99.4129 1.20646 92.7561 1.46508 86.0994 1.7237C84.0849 1.80991 82.0703 1.89611 79.9682 1.98232C78.8296 1.98232 77.6909 2.06853 76.5523 2.15473C69.8955 2.49956 63.3264 2.84439 56.6697 3.18922C53.2537 3.36163 49.8378 3.53404 46.4218 3.79267C40.5534 4.13749 34.6849 4.48232 28.9041 4.91335C23.824 5.25818 18.7438 5.5168 13.6637 5.77542C12.8754 5.86163 12.0871 5.86163 11.2112 5.94784C9.89739 6.03404 8.58356 6.03404 7.26973 6.12025C6.13108 6.46508 4.90484 6.46508 3.76619 6.46508C3.6786 6.12025 3.32825 5.86163 3.06548 5.94784C2.27719 5.94784 1.57648 6.03404 0.788183 6.12025C0.437829 6.20646 0.0874746 6.37887 -0.000113893 6.7237C-0.0877024 7.15473 0.175063 7.58577 0.525417 7.67198C0.875771 7.75818 1.22613 7.84439 1.57648 7.9306C1.92683 8.0168 2.1896 8.0168 2.53995 8.0168C3.41584 8.10301 4.20414 8.10301 5.08002 8.10301ZM210.037 5.34439C211.088 5.34439 212.227 5.34439 213.278 5.34439C213.366 5.60301 213.541 5.77542 213.716 5.94784C213.278 5.94784 212.84 6.03404 212.49 6.03404C211.701 6.03404 210.913 6.12025 210.125 6.12025C206.621 6.20646 203.205 6.37887 199.702 6.46508C198.125 6.55129 196.549 6.63749 194.972 6.63749C192.519 6.63749 189.979 6.7237 187.527 6.7237C181.834 6.80991 176.228 6.89611 170.535 6.98232C159.499 7.15473 148.55 7.32715 137.514 7.49956C129.631 7.58577 121.748 7.84439 113.865 8.10301C102.041 8.44784 90.1285 8.70646 78.304 9.05129C75.9391 9.13749 73.5742 9.2237 71.2094 9.39611C64.465 9.74094 57.7207 9.99956 50.9764 10.3444C44.4073 10.6892 37.7505 10.9478 31.1814 11.2927C30.5683 11.2927 29.9552 11.3789 29.342 11.3789C31.0938 11.2065 32.9332 11.1203 34.6849 10.9478C40.9037 10.5168 47.1225 9.99956 53.3413 9.56853C55.531 9.39611 57.7207 9.2237 59.8228 9.05129C60.9615 8.96508 62.1001 8.87887 63.1512 8.87887C69.7203 8.53405 76.2019 8.10301 82.6834 7.75818C83.9097 7.67198 85.2235 7.58577 86.4498 7.49956C88.2891 7.41335 90.1285 7.32715 91.8802 7.32715C98.537 7.06853 105.194 6.80991 111.85 6.55129C113.339 6.46508 114.828 6.46508 116.23 6.37887C116.58 6.37887 117.018 6.37887 117.369 6.37887C118.42 6.37887 119.471 6.37887 120.434 6.29267C127.091 6.12025 133.835 6.03404 140.492 5.86163C143.557 5.77542 146.623 5.68922 149.689 5.68922C159.586 5.60301 169.571 5.5168 179.469 5.4306C189.804 5.4306 199.964 5.34439 210.037 5.34439Z" fill="#C8F4A6"/>
</svg>
